<svg width="71" height="72" viewBox="0 0 71 72" fill="none" xmlns="http://www.w3.org/2000/svg">
<path d="M67.4335 13.708H3.56664C2.71971 13.708 1.90747 14.0444 1.3086 14.6433C0.709732 15.2421 0.373291 16.0544 0.373291 16.9013V29.6747C0.378846 31.6512 0.995605 33.5776 2.13901 35.1898C3.28242 36.802 4.89651 38.0211 6.75998 38.6799V67.9948C6.75998 68.8417 7.09642 69.654 7.69529 70.2529C8.29416 70.8517 9.1064 71.1882 9.95333 71.1882H61.0468C61.8938 71.1882 62.706 70.8517 63.3049 70.2529C63.9038 69.654 64.2402 68.8417 64.2402 67.9948V38.6799C66.1037 38.0211 67.7178 36.802 68.8612 35.1898C70.0046 33.5776 70.6213 31.6512 70.6269 29.6747V16.9013C70.6269 16.0544 70.2904 15.2421 69.6916 14.6433C69.0927 14.0444 68.2805 13.708 67.4335 13.708ZM45.0801 20.0946H51.4668V29.6747C51.4668 30.5216 51.1304 31.3338 50.5315 31.9327C49.9326 32.5316 49.1204 32.868 48.2735 32.868C47.4265 32.868 46.6143 32.5316 46.0154 31.9327C45.4166 31.3338 45.0801 30.5216 45.0801 29.6747V20.0946ZM32.3067 20.0946H38.6934V29.6747C38.6934 30.5216 38.357 31.3338 37.7581 31.9327C37.1593 32.5316 36.347 32.868 35.5001 32.868C34.6532 32.868 33.8409 32.5316 33.2421 31.9327C32.6432 31.3338 32.3067 30.5216 32.3067 29.6747V20.0946ZM19.5334 20.0946H25.9201V29.6747C25.9201 30.5216 25.5836 31.3338 24.9847 31.9327C24.3859 32.5316 23.5736 32.868 22.7267 32.868C21.8798 32.868 21.0675 32.5316 20.4687 31.9327C19.8698 31.3338 19.5334 30.5216 19.5334 29.6747V20.0946ZM9.95333 32.868C9.1064 32.868 8.29416 32.5316 7.69529 31.9327C7.09642 31.3338 6.75998 30.5216 6.75998 29.6747V20.0946H13.1467V29.6747C13.1467 30.5216 12.8102 31.3338 12.2114 31.9327C11.6125 32.5316 10.8003 32.868 9.95333 32.868ZM41.8868 64.8015H29.1134V58.4148C29.1134 56.7209 29.7863 55.0964 30.984 53.8987C32.1818 52.701 33.8062 52.0281 35.5001 52.0281C37.1939 52.0281 38.8184 52.701 40.0162 53.8987C41.2139 55.0964 41.8868 56.7209 41.8868 58.4148V64.8015ZM57.8535 64.8015H48.2735V58.4148C48.2735 55.0271 46.9277 51.7781 44.5322 49.3826C42.1368 46.9872 38.8878 45.6414 35.5001 45.6414C32.1124 45.6414 28.8634 46.9872 26.4679 49.3826C24.0725 51.7781 22.7267 55.0271 22.7267 58.4148V64.8015H13.1467V38.6799C14.3204 38.2442 15.4032 37.5946 16.34 36.7639C18.0964 38.3349 20.3702 39.2034 22.7267 39.2034C25.0832 39.2034 27.357 38.3349 29.1134 36.7639C30.8698 38.3349 33.1436 39.2034 35.5001 39.2034C37.8566 39.2034 40.1304 38.3349 41.8868 36.7639C43.6432 38.3349 45.917 39.2034 48.2735 39.2034C50.6299 39.2034 52.9037 38.3349 54.6602 36.7639C55.597 37.5946 56.6797 38.2442 57.8535 38.6799V64.8015ZM64.2402 29.6747C64.2402 30.5216 63.9038 31.3338 63.3049 31.9327C62.706 32.5316 61.8938 32.868 61.0468 32.868C60.1999 32.868 59.3877 32.5316 58.7888 31.9327C58.1899 31.3338 57.8535 30.5216 57.8535 29.6747V20.0946H64.2402V29.6747ZM10.9113 7.32126H61.0468C61.8938 7.32126 62.706 6.98482 63.3049 6.38595C63.9038 5.78708 64.2402 4.97484 64.2402 4.12792C64.2402 3.28099 63.9038 2.46875 63.3049 1.86988C62.706 1.27101 61.8938 0.93457 61.0468 0.93457H10.9113C10.0644 0.93457 9.25216 1.27101 8.65329 1.86988C8.05443 2.46875 7.71798 3.28099 7.71798 4.12792C7.71798 4.97484 8.05443 5.78708 8.65329 6.38595C9.25216 6.98482 10.0644 7.32126 10.9113 7.32126Z" fill="white"/>
</svg>
