<svg width="66" height="65" viewBox="0 0 66 65" fill="none" xmlns="http://www.w3.org/2000/svg">
<path d="M42.0299 33.389C44.0639 31.2047 45.2098 28.34 45.2433 25.3555C45.2433 22.1339 43.9636 19.0444 41.6856 16.7664C39.4076 14.4884 36.3181 13.2087 33.0965 13.2087C29.875 13.2087 26.7854 14.4884 24.5075 16.7664C22.2295 19.0444 20.9498 22.1339 20.9498 25.3555C20.9833 28.34 22.1292 31.2047 24.1632 33.389C21.3311 34.7993 18.8939 36.8915 17.0709 39.4773C15.2479 42.0632 14.0963 45.0616 13.7196 48.2029C13.6258 49.0552 13.8745 49.9098 14.4108 50.5787C14.9472 51.2476 15.7273 51.6761 16.5795 51.7698C17.4318 51.8636 18.2864 51.6149 18.9553 51.0786C19.6242 50.5423 20.0527 49.7621 20.1464 48.9099C20.5299 45.7965 22.0386 42.9308 24.3884 40.8527C26.7382 38.7746 29.7668 37.6275 32.9037 37.6275C36.0406 37.6275 39.0693 38.7746 41.419 40.8527C43.7688 42.9308 45.2776 45.7965 45.661 48.9099C45.7504 49.7339 46.1547 50.4914 46.7894 51.0244C47.4242 51.5573 48.2403 51.8244 49.0673 51.7698H49.4208C50.2631 51.6729 51.033 51.247 51.5627 50.5849C52.0924 49.9228 52.3389 49.0782 52.2486 48.2351C51.8998 45.1103 50.7845 42.12 49.0018 39.53C47.2191 36.9401 44.8242 34.8306 42.0299 33.389ZM33.0001 31.0754C31.8688 31.0754 30.763 30.7399 29.8223 30.1114C28.8817 29.4829 28.1486 28.5895 27.7156 27.5444C27.2827 26.4992 27.1694 25.3491 27.3901 24.2396C27.6108 23.13 28.1556 22.1108 28.9556 21.3109C29.7555 20.5109 30.7747 19.9662 31.8842 19.7455C32.9938 19.5248 34.1439 19.638 35.189 20.071C36.2342 20.5039 37.1275 21.237 37.7561 22.1777C38.3846 23.1183 38.72 24.2242 38.72 25.3555C38.72 26.8725 38.1174 28.3274 37.0447 29.4C35.972 30.4727 34.5171 31.0754 33.0001 31.0754ZM55.4941 0.35498H10.5061C7.94937 0.35498 5.49732 1.37065 3.68942 3.17856C1.88152 4.98646 0.865845 7.4385 0.865845 9.99527V54.9833C0.865845 57.54 1.88152 59.9921 3.68942 61.8C5.49732 63.6079 7.94937 64.6236 10.5061 64.6236H55.4941C58.0509 64.6236 60.5029 63.6079 62.3109 61.8C64.1188 59.9921 65.1344 57.54 65.1344 54.9833V9.99527C65.1344 7.4385 64.1188 4.98646 62.3109 3.17856C60.5029 1.37065 58.0509 0.35498 55.4941 0.35498ZM58.7076 54.9833C58.7076 55.8355 58.369 56.6529 57.7664 57.2555C57.1637 57.8581 56.3464 58.1967 55.4941 58.1967H10.5061C9.65388 58.1967 8.83653 57.8581 8.23389 57.2555C7.63126 56.6529 7.2927 55.8355 7.2927 54.9833V9.99527C7.2927 9.14301 7.63126 8.32567 8.23389 7.72303C8.83653 7.1204 9.65388 6.78184 10.5061 6.78184H55.4941C56.3464 6.78184 57.1637 7.1204 57.7664 7.72303C58.369 8.32567 58.7076 9.14301 58.7076 9.99527V54.9833Z" fill="#BDBDBD"/>
</svg>
